<?xml version="1.0" encoding="utf-8"?>
<!-- Generator: Adobe Illustrator 26.4.1, SVG Export Plug-In . SVG Version: 6.00 Build 0)  -->
<svg version="1.1" id="图层_1" xmlns="http://www.w3.org/2000/svg" xmlns:xlink="http://www.w3.org/1999/xlink" x="0px" y="0px"
	 viewBox="0 0 786.4 652" style="enable-background:new 0 0 786.4 652;" xml:space="preserve">
<style type="text/css">
	.st0{fill:#E59CC3;}
	.st1{fill:#F0579A;}
	.st2{fill:#D982AD;}
	.st3{fill:#FED5EB;}
	.st4{fill:#FEBAD8;}
	.st5{fill:#DF3177;}
	.st6{fill:#D772A4;}
	.st7{fill:#FCC1E0;}
	.st8{fill:#FE4592;}
	.st9{fill:#A12D72;}
	.st10{fill:#D6518C;}
	.st11{fill:#FE3D8C;}
	.st12{fill:#FE71B1;}
	.st13{fill:#E03178;}
	.st14{fill:#FD71B2;}
	.st15{fill:#FEB8DA;}
	.st16{fill:#FED6EB;}
	.st17{fill:#E79EC5;}
	.st18{fill:#E7A1C6;}
	.st19{fill:#43147C;}
	.st20{fill:#FE60A4;}
	.st21{fill:#E589BD;}
	.st22{fill:#E65895;}
	.st23{fill:#DC73A6;}
	.st24{fill:none;stroke:#231815;stroke-miterlimit:10;}
	.st25{fill:#FE6DAF;}
	.st26{fill:#C64F8D;}
	.st27{fill:#94E6E4;}
	.st28{fill:#FFFFFF;}
</style>
<polygon class="st0" points="657.7,289.9 593,283.6 592,294.9 573.2,294.9 573.2,304.9 549.7,304.9 549.7,324.7 573.2,324.7
	573.2,327.3 605.4,327.3 605.4,334.7 629.7,334.7 629.7,327.3 646.5,327.3 646.5,319.3 657.7,319.3 "/>
<polygon class="st1" points="633.1,323.6 620.9,330.9 620.9,314.7 633.1,308.2 "/>
<polygon class="st2" points="594.9,311.3 581.1,319 581.1,302.4 594.9,295.4 "/>
<polygon class="st3" points="616.1,325.9 501.1,303.5 433,336.6 535.4,373 "/>
<polygon class="st4" points="500.2,355.9 487,349.1 557.2,314.4 571.4,317.2 "/>
<polygon class="st5" points="508.1,396.8 665.7,304.5 665.7,319.2 520.6,409.2 "/>
<polygon class="st5" points="461.7,344 622.9,262.1 622.9,281.2 474.2,356.3 "/>
<g>
	<polygon class="st6" points="529.1,489.8 509.5,488.4 522.6,445.5 535.7,445.5 	"/>
	<polygon class="st7" points="527.1,506.4 504.4,504.7 509.5,488.4 529.1,489.8 	"/>
	<polygon class="st8" points="543.8,507.5 527.1,506.4 529.1,489.8 544.4,490.7 	"/>
	<polygon class="st8" points="525.3,522.4 500.1,520.4 504.5,504.7 527.1,506.4 	"/>
	<polygon class="st8" points="504.5,504.7 487.8,503.5 494.3,487.4 509.5,488.4 	"/>
	<polygon class="st9" points="531.4,473.9 514.4,472.4 518.5,458.3 533.5,460.3 	"/>
</g>
<g>
	<polygon class="st6" points="352.7,465 335.6,456 379,421.4 390,428.6 	"/>
	<polygon class="st7" points="340.1,477.3 321,467.3 335.6,456 352.7,465 	"/>
	<polygon class="st8" points="354.5,484.3 340.1,477.3 352.7,465 364.9,471.7 	"/>
	<polygon class="st8" points="327.8,489.3 306.9,478.3 321,467.3 340.1,477.3 	"/>
	<polygon class="st8" points="321,467.3 308.8,460.6 324.5,449.5 335.6,456 	"/>
</g>
<polygon class="st10" points="514.1,451.5 535.7,451.5 535.7,461.7 513.1,458.2 "/>
<g>
	<polygon class="st11" points="338.1,393.5 320.4,390.8 319.7,370.5 337.5,373.2 	"/>
	<polygon class="st11" points="356.6,416.4 338.8,413.8 338.1,393.5 355.9,396.2 	"/>
	<polygon class="st11" points="375,439.4 357.2,436.7 356.6,416.4 374.3,419.2 	"/>
	<polygon class="st12" points="338.8,413.8 321,411.2 320.4,390.8 338.1,393.5 	"/>
	<polygon class="st12" points="357.2,436.8 339.5,434.1 338.8,413.8 356.6,416.4 	"/>
	<polygon class="st13" points="344.9,391.2 338.1,393.5 337.5,373.2 344.3,370.5 	"/>
	<polygon class="st14" points="337.5,373.2 319.7,370.5 326.5,368.3 344.3,370.5 	"/>
	<polygon class="st13" points="363.3,414.1 356.6,416.4 355.9,396.2 362.7,393.6 	"/>
	<polygon class="st14" points="355.9,396.2 338.1,393.5 344.9,391.2 362.7,393.6 	"/>
	<polygon class="st13" points="381.7,436.1 375,439.4 374.3,419.2 381.1,416.5 	"/>
	<polygon class="st14" points="374.3,419.2 356.6,416.4 363.3,414.1 381.1,416.5 	"/>
</g>
<g>
	<polygon class="st11" points="355.1,324.9 337.5,321.7 337.5,301.4 355.1,304.7 	"/>
	<polygon class="st11" points="372.8,348.5 355.1,345.3 355.1,324.9 372.8,328.3 	"/>
	<polygon class="st11" points="390.4,372 372.8,368.8 372.8,348.5 390.4,351.8 	"/>
	<polygon class="st12" points="355.1,345.3 337.5,342.1 337.5,321.7 355.1,324.9 	"/>
	<polygon class="st12" points="372.8,368.8 355.1,365.6 355.1,345.3 372.8,348.5 	"/>
	<polygon class="st13" points="362,323 355.1,324.9 355.1,304.7 362,302.3 	"/>
	<polygon class="st14" points="355.1,304.7 337.5,301.4 344.3,299.4 362,302.3 	"/>
	<polygon class="st13" points="379.6,346.4 372.8,348.5 372.8,328.3 379.7,325.9 	"/>
	<polygon class="st14" points="372.8,328.3 355.1,325 362,323 379.7,325.9 	"/>
	<polygon class="st13" points="397.3,369 390.4,372 390.4,351.8 397.3,349.3 	"/>
	<polygon class="st14" points="390.4,351.8 372.8,348.5 379.6,346.4 397.3,349.3 	"/>
</g>
<polyline class="st15" points="491.9,381.7 491.2,484 349.8,458 347.6,359.7 491.9,381.7 "/>
<polyline class="st16" points="491.9,381.7 347.6,359.7 402,332.7 535.3,349.5 491.9,381.7 "/>
<polygon class="st17" points="535.3,349.5 536,449 491.2,484 491.9,381.7 "/>
<polygon class="st18" points="535.7,461.7 617.8,405.4 616.1,325.9 535.4,373 "/>
<polygon class="st19" points="370.6,428.5 349,424.6 348.4,400.1 370.1,403.3 "/>
<polygon class="st20" points="436.4,445.8 395.3,439.8 395.3,415.7 436.2,422.2 "/>
<polygon class="st19" points="491.4,447 467.6,442.7 466.9,418.1 491.6,421.7 "/>
<rect x="535.4" y="373" class="st21" width="15.3" height="70.3"/>
<polygon class="st6" points="533.1,393.4 523.3,402.3 523.1,387.7 533.1,387.7 "/>
<g>
	<polygon class="st11" points="541.5,394.8 523.1,392.5 523.1,371.3 541.5,373.4 	"/>
	<polygon class="st11" points="560,375.9 541.5,373.5 541.5,352.2 560,354.5 	"/>
	<polygon class="st11" points="578.5,356.8 560,354.5 560,333.3 578.5,335.5 	"/>
	<polygon class="st12" points="560,396.8 541.5,394.7 541.5,373.4 560,375.9 	"/>
	<polygon class="st14" points="541.5,373.4 523.1,371.3 529.5,368.6 541.5,369.9 	"/>
	<polygon class="st14" points="560,354.5 541.5,352.2 548,349.6 560,350.9 	"/>
	<polygon class="st14" points="578.5,335.7 560,333.4 566.4,330.8 585.1,332.7 	"/>
	<polygon class="st13" points="585.1,354.7 578.5,356.7 578.5,335.7 585.1,332.7 	"/>
	<polygon class="st22" points="585.1,375.6 578.5,377.7 578.5,356.7 585.1,354.7 	"/>
	<polygon class="st22" points="566.7,394.8 560,396.9 560,375.9 566.7,373.8 	"/>
	<polygon class="st12" points="578.5,377.7 560,375.9 560,354.3 578.5,356.7 	"/>
</g>
<polygon class="st23" points="535.7,450 491.2,484 491.2,463.5 535.3,431.3 "/>
<polygon class="st12" points="467.7,479.7 491.2,484 491.2,463.5 467.4,459.7 "/>
<polygon class="st12" points="349.8,458 371.2,461.9 371.2,444.6 349.4,441 "/>
<g>
	<polygon class="st9" points="623.3,413.1 612.1,424.6 590.8,417.2 603.1,406.8 	"/>
	<polygon class="st6" points="638.2,417.5 627.6,430 612.1,424.6 623.3,413.1 	"/>
	<polygon class="st7" points="643.8,435.1 627.6,430 638.2,417.5 652.7,421.5 	"/>
	<polygon class="st8" points="635.2,448 618.2,441.6 627.6,430 643.8,435.1 	"/>
	<polygon class="st8" points="652.7,421.5 638.2,417.5 645.2,409.3 658.6,412.8 	"/>
	<polygon class="st8" points="656.7,439.6 643.8,435.1 652.7,421.5 665,425.1 	"/>
</g>
<path class="st24" d="M673,380.9"/>
<path class="st24" d="M598.3,452.3"/>
<polygon class="st15" points="521,360 385.1,341 402,332.6 535.4,349.6 "/>
<g>
	<polygon class="st11" points="400.5,294.9 382.9,291.7 382.9,271.4 400.5,274.7 	"/>
	<polygon class="st11" points="418.1,318.5 400.5,315.3 400.5,294.9 418.1,298.3 	"/>
	<polygon class="st11" points="435.8,342.1 418.1,338.8 418.1,318.5 435.8,321.8 	"/>
	<polygon class="st12" points="400.5,315.3 382.9,312.1 382.9,291.7 400.5,294.9 	"/>
	<polygon class="st12" points="418.1,338.8 400.5,335.6 400.5,315.3 418.1,318.5 	"/>
	<polygon class="st13" points="407.4,293 400.5,294.9 400.5,274.7 407.4,272.3 	"/>
	<polygon class="st14" points="400.5,274.7 382.9,271.4 389.7,269.4 407.4,272.3 	"/>
	<polygon class="st13" points="425,316.5 418.1,318.5 418.1,298.3 425.1,295.9 	"/>
	<polygon class="st14" points="418.1,298.3 400.5,294.9 407.4,293 425.1,295.9 	"/>
	<polygon class="st13" points="442.7,339 435.8,342.1 435.8,321.8 442.7,319.4 	"/>
	<polygon class="st14" points="435.8,321.8 418.1,318.5 425,316.5 442.7,319.4 	"/>
</g>
<polygon class="st15" points="394.2,350 373.2,347 385.5,340.9 404.7,343.7 "/>
<polygon class="st15" points="512.3,366.6 488.9,363.6 499.3,356.5 522.6,359 "/>
<polygon class="st23" points="617.8,405.4 573.2,439.4 573.2,418.8 617.3,386.7 "/>
<g>
	<polygon class="st11" points="537.5,463.4 520.9,461.3 520.9,442.2 537.5,444.2 	"/>
	<polygon class="st11" points="554.1,446.4 537.5,444.3 537.5,425.3 554.1,427.2 	"/>
	<polygon class="st11" points="570.7,429.3 554.1,427.3 554.1,408.2 570.7,410.2 	"/>
	<polygon class="st12" points="554.1,465.2 537.5,463.3 537.5,444.2 554.1,446.4 	"/>
	<polygon class="st14" points="537.5,444.2 520.9,442.2 526.7,439.9 537.5,441 	"/>
	<polygon class="st14" points="554.1,427.3 537.5,425.3 543.3,422.9 554.1,424 	"/>
	<polygon class="st14" points="570.7,410.4 554.1,408.4 559.9,406 576.5,407.8 	"/>
	<polygon class="st13" points="576.6,427.4 570.7,429.3 570.7,410.4 576.5,407.8 	"/>
	<polygon class="st22" points="576.6,446.2 570.7,448 570.7,429.2 576.6,427.4 	"/>
	<polygon class="st22" points="560.1,463.4 554.1,465.3 554.1,446.4 560.1,444.6 	"/>
	<polygon class="st12" points="570.7,448 554.1,446.4 554.1,427.1 570.7,429.3 	"/>
</g>
<polygon class="st25" points="622.9,262.4 468,340.9 461.3,340.2 618.8,261.9 "/>
<g>
	<polygon class="st11" points="497.6,350.9 479.1,348.6 479.1,327.3 497.6,329.5 	"/>
	<polygon class="st11" points="516.1,331.9 497.6,329.6 497.6,308.3 516.1,310.5 	"/>
	<polygon class="st11" points="534.6,312.9 516.1,310.6 516.1,289.3 534.6,291.6 	"/>
	<polygon class="st12" points="516.1,352.9 497.6,350.8 497.6,329.5 516.1,331.9 	"/>
	<polygon class="st14" points="497.6,329.5 479.1,327.3 485.6,324.7 497.6,325.9 	"/>
	<polygon class="st14" points="516.1,310.6 497.6,308.3 504,305.7 516.1,307 	"/>
	<polygon class="st14" points="534.6,291.7 516.1,289.5 522.5,286.9 541.1,288.8 	"/>
	<polygon class="st13" points="541.2,310.7 534.6,312.8 534.6,291.7 541.1,288.8 	"/>
	<polygon class="st22" points="541.2,331.6 534.6,333.8 534.6,312.7 541.2,310.7 	"/>
	<polygon class="st22" points="522.7,350.9 516.1,352.9 516.1,332 522.7,329.9 	"/>
	<polygon class="st12" points="534.6,333.8 516.1,331.9 516.1,310.4 534.6,312.8 	"/>
</g>
<polygon class="st5" points="643.6,286.5 611.1,303.3 611.1,286.9 643.6,270.4 "/>
<polygon class="st5" points="665.7,291.4 633.1,308.2 633.1,291.7 665.7,275.3 "/>
<polygon class="st5" points="665.7,305.9 655,312.2 655,296.9 665.7,291.4 "/>
<polygon class="st21" points="607.7,393.7 593.5,404 593.4,384.9 607.7,375.1 "/>
<polygon class="st26" points="607.7,413.1 593.5,423.9 593.5,404 607.7,393.7 "/>
<rect x="271.7" y="351.5" class="st27" width="27.5" height="27.5"/>
<rect x="220.2" y="318.3" class="st27" width="34" height="34"/>
<rect x="254.4" y="249.4" class="st27" width="52.4" height="52.4"/>
<rect x="94.8" y="109.9" class="st27" width="136.9" height="136.9"/>
<rect x="132.2" y="168.9" class="st28" width="62.2" height="18.8"/>
<rect x="132.2" y="168.9" transform="matrix(6.123234e-17 -1 1 6.123234e-17 -15.0469 341.549)" class="st28" width="62.2" height="18.8"/>
<rect x="274.1" y="255.4" class="st28" width="26.4" height="8.1"/>
<rect x="283.3" y="264.5" transform="matrix(6.123234e-17 -1 1 6.123234e-17 27.9014 564.9697)" class="st28" width="26.4" height="8.1"/>
<rect x="286.1" y="356.5" transform="matrix(6.123234e-17 -1 1 6.123234e-17 -70.4699 650.6785)" class="st28" width="8.1" height="8.1"/>
<rect x="237.2" y="324.5" transform="matrix(6.123234e-17 -1 1 6.123234e-17 -87.3191 572.919)" class="st28" width="11.3" height="11.3"/>
</svg>
